#!OML:ASF E:\Steps\Project 1\Capture day 1\Session 2\Subject.ASF
:FULLY-SPECIFIED
:DEGREES
410
root 11.9089 17.9921 8.52199 -156.342 -1.40488 177.935
lowerback -28.2828 -4.84049 -14.6055
upperback -0.0522531 -1.97622 -2.61516
thorax 15.1231 -2.15783 4.08169
lowerneck -1.27239 -3.19799 0.0933938
upperneck 20.1401 -4.12551 7.54525
head 6.46883 -0.770482 2.23055
rclavicle -4.57205e-015 -6.04305e-014
rhumerus -37.4475 -19.667 -75.4036
rradius 24.8867
rwrist 3.64579
rhand -4.25739 -52.0095
rfingers 7.12502
rthumb 21.5068 279.165
lclavicle -4.57205e-015 -6.04305e-014
lhumerus -29.1334 1.75193 77.225
lradius 17.9935
lwrist -5.41848
lhand -21.0004 -11.2769
lfingers 7.12502
lthumb 5.37399 18.6349
rfemur -28.0518 9.0153 18.6312
rtibia 16.7779
rfoot -21.2619 -7.66813
rtoes -23.3217
lfemur -27.0597 -12.656 -21.3809
ltibia 15.2591
lfoot -9.76618 -5.89008
ltoes -13.1105
411
root 11.906 17.9939 8.5073 -156.361 -1.22534 177.861
lowerback -28.2977 -4.78684 -14.5098
upperback -0.0888438 -1.94211 -2.58438
thorax 15.0818 -2.13356 4.08171
lowerneck -1.37274 -3.05064 0.034308
upperneck 20.0171 -3.93447 7.52494
head 6.43938 -0.696558 2.24196
rclavicle -9.34288e-015 -6.52014e-014
rhumerus -37.1644 -19.4372 -75.6479
rradius 24.9985
rwrist 3.45347
rhand -4.23353 -52.4618
rfingers 7.12502
rthumb 21.5297 278.715
lclavicle -9.34288e-015 -6.52014e-014
lhumerus -29.1714 2.48122 76.9063
lradius 17.2934
lwrist -6.1351
lhand -21.0082 -11.3723
lfingers 7.12502
lthumb 5.36644 18.5398
rfemur -27.934 9.03561 18.5121
rtibia 16.6465
rfoot -21.236 -7.52893
rtoes -23.0942
lfemur -26.8265 -12.6832 -21.5185
ltibia 14.963
lfoot -9.73711 -5.76443
ltoes -12.9895
412
root 11.9053 17.9947 8.49466 -156.348 -1.13146 177.791
lowerback -28.3807 -4.76887 -14.4514
upperback -0.0372954 -1.91141 -2.54953
thorax 15.1789 -2.12002 4.09843
lowerneck -1.65829 -3.0255 0.156781
upperneck 19.8361 -3.93837 7.41646
head 6.42769 -0.71731 2.17929
rclavicle -1.98785e-015 -1.20861e-013
rhumerus -36.6568 -19.6752 -75.7876
rradius 24.8826
rwrist 3.58904
rhand -4.28079 -52.4433
rfingers 7.12502
rthumb 21.4843 278.728
lclavicle -1.98785e-015 -1.20861e-013
lhumerus -29.0517 3.09709 76.608
lradius 16.6772
lwrist -6.76639
lhand -21.0828 -11.6647
lfingers 7.12502
lthumb 5.29441 18.2492
rfemur -27.865 9.08511 18.4038
rtibia 16.5719
rfoot -21.1986 -7.47495
rtoes -22.8622
lfemur -26.6926 -12.6975 -21.6256
ltibia 14.7879
lfoot -9.69115 -5.73722
ltoes -13.0964
413
root 11.9065 17.9954 8.48318 -156.359 -1.11977 177.762
lowerback -28.4157 -4.72018 -14.3804
upperback -0.035585 -1.86256 -2.50665
thorax 15.1913 -2.09284 4.1289
lowerneck -1.72663 -3.07615 0.175501
upperneck 19.6933 -4.02392 7.39425
head 6.39676 -0.771618 2.16046
rclavicle -9.93923e-016 2.22639e-014
rhumerus -36.2631 -19.7837 -75.9004
rradius 24.7448
rwrist 3.51716
rhand -4.52198 -52.4938
rfingers 7.12502
rthumb 21.2526 278.651
lclavicle -9.93923e-016 2.22639e-014
lhumerus -29.1656 3.03695 76.5415
lradius 16.4087
lwrist -6.70759
lhand -21.1425 -11.7219
lfingers 7.12502
lthumb 5.23679 18.1934
rfemur -27.7024 9.09678 18.3845
rtibia 16.3998
rfoot -21.1109 -7.44178
rtoes -22.6629
lfemur -26.5311 -12.6747 -21.6754
ltibia 14.6043
lfoot -9.54559 -5.78028
ltoes -12.6003
414
root 11.909 17.9953 8.47256 -156.395 -1.11678 177.711
lowerback -28.3918 -4.65562 -14.3401
upperback -0.0838892 -1.80449 -2.45112
thorax 15.1153 -2.05939 4.19682
lowerneck -1.60302 -3.07812 0.118808
upperneck 19.6254 -4.00719 7.36426
head 6.35304 -0.774313 2.16176
rclavicle -6.95746e-015 -4.13472e-014
rhumerus -36.1284 -19.5286 -76.0354
rradius 24.8778
rwrist 3.1824
rhand -4.68111 -52.5557
rfingers 7.12502
rthumb 21.0998 278.572
lclavicle -6.95746e-015 -4.13472e-014
lhumerus -29.4019 3.18571 76.4637
lradius 16.1697
lwrist -6.83674
lhand -21.1309 -11.3869
lfingers 7.12502
lthumb 5.24798 18.5281
rfemur -27.4526 9.13891 18.3515
rtibia 16.075
rfoot -20.9109 -7.43234
rtoes -22.2697
lfemur -26.3131 -12.5367 -21.7823
ltibia 14.3559
lfoot -9.41176 -5.90209
ltoes -12.5979
415
root 11.9129 17.9957 8.46019 -156.455 -1.15112 177.635
lowerback -28.3394 -4.64183 -14.3268
upperback -0.097141 -1.802 -2.39461
thorax 15.078 -2.054 4.25742
lowerneck -1.57826 -3.10161 0.117073
upperneck 19.4474 -4.04372 7.32691
head 6.29268 -0.81002 2.14517
rclavicle -2.20651e-014 -3.33958e-014
rhumerus -36.0709 -19.0775 -76.3224
rradius 25.2588
rwrist 2.77665
rhand -4.8657 -52.1363
rfingers 7.12502
rthumb 20.9224 278.972
lclavicle -2.20651e-014 -3.33958e-014
lhumerus -29.5731 3.67338 76.2172
lradius 15.803
lwrist -7.26074
lhand -21.1932 -11.104
lfingers 7.12502
lthumb 5.18785 18.8125
rfemur -27.1202 9.20165 18.2927
rtibia 15.6638
rfoot -20.7085 -7.4176
rtoes -21.6315
lfemur -26.0396 -12.393 -21.9218
ltibia 14.0604
lfoot -9.2548 -6.04518
ltoes -13.1387
416
root 11.9153 17.9968 8.44591 -156.46 -1.20199 177.636
lowerback -28.3724 -4.64369 -14.2099
upperback -0.116131 -1.84163 -2.33042
thorax 15.0811 -2.06219 4.25225
lowerneck -1.54274 -3.10522 0.0730946
upperneck 19.1274 -4.06881 7.35608
head 6.18694 -0.849742 2.15576
rclavicle 4.96962e-015 -1.43125e-014
rhumerus -35.9607 -18.8702 -76.549
rradius 25.4861
rwrist 2.64995
rhand -4.91749 -52.017
rfingers 7.12502
rthumb 20.8727 279.086
lclavicle 4.96962e-015 -1.43125e-014
lhumerus -29.7816 4.15793 75.875
lradius 15.4642
lwrist -7.69806
lhand -21.2047 -10.9131
lfingers 7.12502
lthumb 5.17673 19.0036
rfemur -26.872 9.24446 18.3177
rtibia 15.3574
rfoot -20.6543 -7.41709
rtoes -21.2843
lfemur -25.8595 -12.3467 -21.935
ltibia 13.82
lfoot -9.05241 -6.11075
ltoes -13.1018
417
root 11.9149 17.9987 8.43029 -156.423 -1.16289 177.651
lowerback -28.5739 -4.6282 -14.0629
upperback -0.070817 -1.82743 -2.26463
thorax 15.2299 -2.05256 4.24604
lowerneck -1.60092 -3.08508 0.0186676
upperneck 18.8789 -4.06621 7.39359
head 6.11972 -0.87103 2.17244
rclavicle 2.78299e-015 -4.92986e-014
rhumerus -35.5371 -19.065 -76.6011
rradius 25.2934
rwrist 2.87681
rhand -4.87274 -52.5757
rfingers 7.12502
rthumb 20.9157 278.532
lclavicle 2.78299e-015 -4.92986e-014
lhumerus -29.783 5.31044 75.3549
lradius 14.9973
lwrist -8.69553
lhand -21.1591 -10.7284
lfingers 7.12502
lthumb 5.22071 19.1873
rfemur -26.7624 9.26415 18.3361
rtibia 15.2144
rfoot -20.6741 -7.32407
rtoes -20.7387
lfemur -25.7439 -12.3647 -21.9268
ltibia 13.6496
lfoot -9.00647 -6.09096
ltoes -12.7392
418
root 11.9117 17.9989 8.41546 -156.395 -1.00423 177.585
lowerback -28.8176 -4.5594 -13.9465
upperback 0.00518483 -1.71743 -2.27342
thorax 15.4146 -2.00548 4.20927
lowerneck -1.74138 -3.13273 0.0286176
upperneck 18.714 -4.16708 7.46674
head 6.09745 -0.927259 2.18405
rclavicle 1.47101e-014 -1.74931e-014
rhumerus -35.1602 -19.1129 -76.7726
rradius 25.2355
rwrist 3.01242
rhand -4.86318 -53.053
rfingers 7.12502
rthumb 20.9249 278.056
lclavicle 1.47101e-014 -1.74931e-014
lhumerus -29.61 6.81979 74.691
lradius 14.3808
lwrist -9.9918
lhand -21.2067 -10.8165
lfingers 7.12502
lthumb 5.17473 19.1003
rfemur -26.7192 9.2179 18.231
rtibia 15.1429
rfoot -20.7093 -7.05212
rtoes -20.113
lfemur -25.5869 -12.3473 -22.0572
ltibia 13.446
lfoot -9.01706 -6.0391
ltoes -12.6938
419
root 11.9091 17.9971 8.4043 -156.299 -0.853781 177.479
lowerback -29.0263 -4.5168 -13.8721
upperback 0.0453648 -1.64356 -2.29374
thorax 15.5457 -1.97546 4.1685
lowerneck -1.85702 -3.06754 -0.030911
upperneck 18.3599 -4.12375 7.60857
head 6.00756 -0.927898 2.2354
rclavicle 2.38542e-015 2.06736e-014
rhumerus -34.9259 -18.946 -77.032
rradius 25.4009
rwrist 3.07264
rhand -4.56062 -52.9145
rfingers 7.12502
rthumb 21.2155 278.226
lclavicle 2.38542e-015 2.06736e-014
lhumerus -29.5336 7.9368 74.1131
lradius 13.9177
lwrist -10.9
lhand -21.1701 -11.0799
lfingers 7.12502
lthumb 5.21009 18.836
rfemur -26.7695 9.2587 18.0431
rtibia 15.0571
rfoot -20.6796 -6.87118
rtoes -20.001
lfemur -25.505 -12.279 -22.2348
ltibia 13.2066
lfoot -8.93128 -6.0113
ltoes -13.1171
